<svg height="512pt" viewBox="0 0 512 512" width="512pt" xmlns="http://www.w3.org/2000/svg"><path d="m17.066406 204.800781h477.867188c4.710937 0 8.53125 3.820313 8.53125 8.53125v25.601563c0 4.710937-3.820313 8.53125-8.53125 8.53125h-477.867188c-4.710937 0-8.53125-3.820313-8.53125-8.53125v-25.601563c0-4.710937 3.820313-8.53125 8.53125-8.53125zm0 0" fill="#cad9fc"/><path d="m17.066406 204.800781h452.265625c4.714844 0 8.535157 3.820313 8.535157 8.53125v25.601563c0 4.710937-3.820313 8.53125-8.535157 8.53125h-452.265625c-4.710937 0-8.53125-3.820313-8.53125-8.53125v-25.601563c0-4.710937 3.820313-8.53125 8.53125-8.53125zm0 0" fill="#e8edfc"/><path d="m34.132812 247.464844h443.734376v247.46875c0 4.710937-3.820313 8.53125-8.535157 8.53125h-426.664062c-4.714844 0-8.535157-3.820313-8.535157-8.53125zm0 0" fill="#7facfa"/><path d="m34.132812 247.464844h418.132813v247.46875c0 4.710937-3.820313 8.53125-8.53125 8.53125h-401.066406c-4.714844 0-8.535157-3.820313-8.535157-8.53125zm0 0" fill="#a4c2f7"/><path d="m187.734375 307.199219v196.265625h-119.46875v-196.265625c.015625-4.707031 3.828125-8.519531 8.535156-8.53125h102.398438c4.707031.011719 8.519531 3.824219 8.535156 8.53125zm0 0" fill="#cad9fc"/><path d="m162.132812 307.199219v196.265625h-93.867187v-196.265625c.015625-4.707031 3.828125-8.519531 8.535156-8.53125h76.800781c4.707032.011719 8.519532 3.824219 8.53125 8.53125zm0 0" fill="#e8edfc"/><path d="m110.933594 332.800781h34.132812c4.714844 0 8.535156 3.820313 8.535156 8.53125v34.132813c0 4.714844-3.820312 8.535156-8.535156 8.535156h-34.132812c-4.714844 0-8.535156-3.820312-8.535156-8.535156v-34.132813c0-4.710937 3.820312-8.53125 8.535156-8.53125zm0 0" fill="#cad9fc"/><path d="m375.464844 128c-.011719 65.976562-53.488282 119.453125-119.464844 119.464844-4.277344-.007813-8.546875-.234375-12.800781-.679688-60.671875-6.542968-106.664063-57.761718-106.664063-118.785156s45.992188-112.242188 106.664063-118.785156c4.253906-.445313 8.523437-.671875 12.800781-.679688 65.976562.011719 119.453125 53.488282 119.464844 119.464844zm0 0" fill="#cad9fc"/><path d="m349.867188 128c0-65.601562-47.757813-118.785156-106.667969-118.785156-58.910157 0-106.664063 53.183594-106.664063 118.785156s47.753906 118.785156 106.664063 118.785156c58.910156 0 106.667969-53.183594 106.667969-118.785156zm0 0" fill="#e8edfc"/><path d="m207.726562 201.859375c-6.789062.011719-13.300781-2.679687-18.101562-7.480469-9.984375-10.003906-9.984375-26.199218 0-36.203125l24.140625-24.136719c1.601563-1.601562 3.769531-2.5 6.035156-2.5 2.261719 0 4.433594.898438 6.03125 2.5l24.136719 24.136719c3.328125 3.332031 3.328125 8.734375 0 12.066407l-24.136719 24.136718c-4.800781 4.800782-11.316406 7.492188-18.105469 7.480469zm0 0" fill="#e8edfc"/><path d="m307.199219 307.199219v59.734375c-.011719 4.707031-3.824219 8.519531-8.53125 8.53125h-59.734375c-2.707032.007812-5.253906-1.292969-6.828125-3.496094-.761719-.976562-1.289063-2.113281-1.535157-3.328125-.101562-.5625-.160156-1.132813-.171874-1.707031v-59.734375c.015624-4.707031 3.828124-8.519531 8.535156-8.53125h59.734375c2.269531-.023438 4.453125.867187 6.058593 2.472656 1.605469 1.605469 2.496094 3.789063 2.472657 6.058594zm0 0" fill="#cad9fc"/><path d="m230.398438 366.933594c.011718.574218.070312 1.144531.171874 1.707031-.144531-.261719-.207031-.558594-.171874-.855469zm0 0" fill="#a4c2f7"/><path d="m230.570312 368.640625c.246094 1.214844.773438 2.351563 1.535157 3.328125l-.425781.085938c-.71875-.996094-1.105469-2.1875-1.109376-3.414063zm0 0" fill="#a4c2f7"/><path d="m238.078125 298.667969h.855469c-4.707032.011719-8.519532 3.824219-8.535156 8.53125v-.851563c.042968-4.226562 3.457031-7.640625 7.679687-7.679687zm0 0" fill="#a4c2f7"/><path d="m304.980469 300.886719-.253907.253906c-1.621093-1.585937-3.792968-2.472656-6.058593-2.472656h.851562c2.039063.003906 3.996094.800781 5.460938 2.21875zm0 0" fill="#a4c2f7"/><path d="m435.199219 307.199219v59.734375c-.011719 4.707031-3.824219 8.519531-8.53125 8.53125h-59.734375c-2.707032.007812-5.253906-1.292969-6.828125-3.496094-.761719-.976562-1.289063-2.113281-1.535157-3.328125-.101562-.5625-.160156-1.132813-.171874-1.707031v-59.734375c.015624-4.707031 3.828124-8.519531 8.535156-8.53125h59.734375c2.269531-.023438 4.453125.867187 6.058593 2.472656 1.605469 1.605469 2.496094 3.789063 2.472657 6.058594zm0 0" fill="#cad9fc"/><path d="m110.933594 332.800781h8.53125c4.714844 0 8.535156 3.820313 8.535156 8.53125v34.132813c0 4.714844-3.820312 8.535156-8.535156 8.535156h-8.53125c-4.714844 0-8.535156-3.820312-8.535156-8.535156v-34.132813c0-4.710937 3.820312-8.53125 8.535156-8.53125zm0 0" fill="#e8edfc"/><path d="m281.601562 307.199219v59.734375c-.015624 4.707031-3.828124 8.519531-8.535156 8.53125h-34.132812c-2.707032.007812-5.253906-1.292969-6.828125-3.496094-.761719-.976562-1.289063-2.113281-1.535157-3.328125-.101562-.5625-.160156-1.132813-.171874-1.707031v-59.734375c.015624-4.707031 3.828124-8.519531 8.535156-8.53125h34.132812c2.269532-.023438 4.453125.867187 6.058594 2.472656s2.5 3.789063 2.476562 6.058594zm0 0" fill="#e8edfc"/><path d="m409.601562 307.199219v59.734375c-.015624 4.707031-3.828124 8.519531-8.535156 8.53125h-34.132812c-2.707032.007812-5.253906-1.292969-6.828125-3.496094-.761719-.976562-1.289063-2.113281-1.535157-3.328125-.101562-.5625-.160156-1.132813-.171874-1.707031v-59.734375c.015624-4.707031 3.828124-8.519531 8.535156-8.53125h34.132812c2.269532-.023438 4.453125.867187 6.058594 2.472656s2.5 3.789063 2.476562 6.058594zm0 0" fill="#e8edfc"/><path d="m358.398438 366.933594c.011718.574218.070312 1.144531.171874 1.707031-.144531-.261719-.207031-.558594-.171874-.855469zm0 0" fill="#a4c2f7"/><path d="m358.570312 368.640625c.246094 1.214844.773438 2.351563 1.535157 3.328125l-.425781.085938c-.71875-.996094-1.105469-2.1875-1.109376-3.414063zm0 0" fill="#a4c2f7"/><path d="m366.078125 298.667969h.855469c-4.707032.011719-8.519532 3.824219-8.535156 8.53125v-.851563c.042968-4.226562 3.457031-7.640625 7.679687-7.679687zm0 0" fill="#a4c2f7"/><path d="m432.980469 300.886719-.253907.253906c-1.621093-1.585937-3.792968-2.472656-6.058593-2.472656h.851562c2.039063.003906 3.996094.800781 5.460938 2.21875zm0 0" fill="#a4c2f7"/><path d="m17.066406 247.464844h17.066406v247.46875c0 4.710937 3.820313 8.53125 8.535157 8.53125h25.597656c-4.710937 0-8.53125-3.820313-8.53125-8.53125v-247.46875h-17.066406c-4.707031-.011719-8.519531-3.824219-8.535157-8.53125v-25.601563c.015626-4.707031 3.828126-8.519531 8.535157-8.53125h-25.601563c-4.707031.011719-8.519531 3.824219-8.53125 8.53125v25.601563c.011719 4.707031 3.824219 8.519531 8.53125 8.53125zm0 0" fill="#fff"/><path d="m494.933594 256h-477.867188c-9.421875-.011719-17.0546872-7.644531-17.066406-17.066406v-25.601563c.0117188-9.417969 7.644531-17.054687 17.066406-17.066406h147.542969c4.710937 0 8.53125 3.820313 8.53125 8.535156 0 4.710938-3.820313 8.53125-8.53125 8.53125h-147.542969v25.601563h477.867188v-25.601563h-147.542969c-4.710937 0-8.53125-3.820312-8.53125-8.53125 0-4.714843 3.820313-8.535156 8.53125-8.535156h147.542969c9.421875.011719 17.054687 7.648437 17.066406 17.066406v25.601563c-.011719 9.421875-7.644531 17.054687-17.066406 17.066406zm0 0" fill="#428dff"/><path d="m93.867188 256c-4.714844 0-8.535157-3.820312-8.535157-8.535156v-42.664063c0-4.714843 3.820313-8.535156 8.535157-8.535156 4.710937 0 8.53125 3.820313 8.53125 8.535156v42.664063c0 4.714844-3.820313 8.535156-8.53125 8.535156zm0 0" fill="#428dff"/><path d="m418.132812 256c-4.710937 0-8.53125-3.820312-8.53125-8.535156v-42.664063c0-4.714843 3.820313-8.535156 8.53125-8.535156 4.714844 0 8.535157 3.820313 8.535157 8.535156v42.664063c0 4.714844-3.820313 8.535156-8.535157 8.535156zm0 0" fill="#428dff"/><path d="m42.667969 247.464844v247.46875h-17.066407v-247.46875zm0 0" fill="#fff"/><g fill="#428dff"><path d="m34.132812 290.132812c4.707032-.011718 8.519532-3.824218 8.535157-8.53125v-34.136718h-17.066407v34.136718c.011719 4.707032 3.824219 8.519532 8.53125 8.53125zm0 0"/><path d="m25.601562 494.933594h17.066407v-145.066406c0-4.714844-3.820313-8.535157-8.535157-8.535157-4.710937 0-8.53125 3.820313-8.53125 8.535157zm0 0"/><path d="m42.667969 315.734375c-.035157-2.261719-.917969-4.421875-2.476563-6.058594l-1.28125-1.023437c-.472656-.324219-.992187-.582032-1.535156-.769532-.484375-.246093-1-.417968-1.535156-.511718-.5625-.097656-1.132813-.152344-1.707032-.171875-2.257812.03125-4.421874.917969-6.058593 2.476562-2.070313 1.992188-2.980469 4.90625-2.410157 7.726563.570313 2.816406 2.542969 5.148437 5.226563 6.183594 1.027344.433593 2.128906.667968 3.242187.679687 2.269532.023437 4.453126-.867187 6.058594-2.472656 1.605469-1.605469 2.5-3.789063 2.476563-6.058594zm0 0"/><path d="m469.332031 512h-426.664062c-9.421875-.011719-17.058594-7.644531-17.066407-17.066406 0-4.714844 3.820313-8.535156 8.53125-8.535156 4.714844 0 8.535157 3.820312 8.535157 8.535156h426.664062v-238.933594h-435.199219c-4.710937 0-8.53125-3.820312-8.53125-8.535156 0-4.710938 3.820313-8.53125 8.53125-8.53125h443.734376c4.710937 0 8.53125 3.820312 8.53125 8.53125v247.46875c-.007813 9.421875-7.644532 17.054687-17.066407 17.066406zm0 0"/><path d="m187.734375 512h-119.46875c-4.710937 0-8.53125-3.820312-8.53125-8.535156v-196.265625c.011719-9.421875 7.644531-17.054688 17.066406-17.066407h102.398438c9.421875.011719 17.054687 7.644532 17.066406 17.066407v196.265625c0 4.714844-3.820313 8.535156-8.53125 8.535156zm-110.933594-17.066406h102.398438v-187.734375h-102.398438zm0 0"/><path d="m307.199219 384h-76.800781c-4.710938 0-8.53125-3.820312-8.53125-8.535156v-68.265625c.011718-9.421875 7.644531-17.054688 17.066406-17.066407h59.734375c9.417969.011719 17.054687 7.644532 17.066406 17.066407v68.265625c0 4.714844-3.820313 8.535156-8.535156 8.535156zm-68.265625-17.066406h59.734375v-59.734375h-59.734375zm0 0"/><path d="m315.734375 384h-93.867187c-4.714844 0-8.535157-3.820312-8.535157-8.535156 0-4.710938 3.820313-8.53125 8.535157-8.53125h93.867187c4.710937 0 8.53125 3.820312 8.53125 8.53125 0 4.714844-3.820313 8.535156-8.53125 8.535156zm0 0"/><path d="m435.199219 384h-76.800781c-4.710938 0-8.53125-3.820312-8.53125-8.535156v-68.265625c.011718-9.421875 7.644531-17.054688 17.066406-17.066407h59.734375c9.417969.011719 17.054687 7.644532 17.066406 17.066407v68.265625c0 4.714844-3.820313 8.535156-8.535156 8.535156zm-68.265625-17.066406h59.734375v-59.734375h-59.734375zm0 0"/><path d="m145.066406 392.535156h-34.132812c-9.421875-.011718-17.054688-7.648437-17.066406-17.070312v-34.132813c.011718-9.417969 7.644531-17.054687 17.066406-17.066406h34.132812c9.421875.011719 17.054688 7.648437 17.066406 17.066406v34.132813c-.011718 9.421875-7.644531 17.058594-17.066406 17.070312zm-34.132812-51.203125v34.132813h34.140625l-.007813-34.132813zm0 0"/><path d="m443.734375 384h-93.867187c-4.714844 0-8.535157-3.820312-8.535157-8.535156 0-4.710938 3.820313-8.53125 8.535157-8.53125h93.867187c4.710937 0 8.53125 3.820312 8.53125 8.53125 0 4.714844-3.820313 8.535156-8.53125 8.535156zm0 0"/><path d="m119.464844 426.667969h-17.066406c-4.710938 0-8.53125-3.820313-8.53125-8.535157 0-4.710937 3.820312-8.53125 8.53125-8.53125h17.066406c4.714844 0 8.535156 3.820313 8.535156 8.53125 0 4.714844-3.820312 8.535157-8.535156 8.535157zm0 0"/><path d="m264.535156 349.867188c-3.453125 0-6.5625-2.082032-7.882812-5.269532-1.320313-3.1875-.59375-6.855468 1.847656-9.296875l40.191406-40.191406c3.34375-3.261719 8.6875-3.226563 11.992188.074219 3.300781 3.304687 3.335937 8.648437.074218 11.992187l-40.191406 40.191407c-1.597656 1.601562-3.769531 2.503906-6.03125 2.5zm0 0"/><path d="m392.535156 349.867188c-3.453125 0-6.5625-2.082032-7.882812-5.269532-1.320313-3.1875-.59375-6.855468 1.847656-9.296875l40.191406-40.191406c3.34375-3.261719 8.6875-3.226563 11.992188.074219 3.300781 3.304687 3.335937 8.648437.074218 11.992187l-40.191406 40.191407c-1.597656 1.601562-3.769531 2.503906-6.03125 2.5zm0 0"/><path d="m256 256c-70.691406 0-128-57.308594-128-128s57.308594-128 128-128 128 57.308594 128 128c-.078125 70.660156-57.339844 127.921875-128 128zm0-238.933594c-61.265625 0-110.933594 49.667969-110.933594 110.933594s49.667969 110.933594 110.933594 110.933594 110.933594-49.667969 110.933594-110.933594c-.070313-61.238281-49.695313-110.863281-110.933594-110.933594zm0 0"/><path d="m51.199219 213.332031c-3.53125 0-6.699219-2.175781-7.964844-5.476562-1.265625-3.296875-.367187-7.035157 2.257813-9.398438l85.332031-76.800781c3.511719-3.066406 8.835937-2.746094 11.957031.722656 3.117188 3.464844 2.878906 8.792969-.539062 11.964844l-85.335938 76.796875c-1.5625 1.414063-3.597656 2.195313-5.707031 2.191406zm0 0"/><path d="m460.800781 213.332031c-2.265625.003907-4.4375-.894531-6.035156-2.5l-85.332031-85.332031c-3.234375-3.347656-3.1875-8.671875.105468-11.960938 3.289063-3.292968 8.613282-3.339843 11.960938-.105468l85.332031 85.332031c2.441407 2.441406 3.171875 6.113281 1.851563 9.300781-1.320313 3.1875-4.433594 5.265625-7.882813 5.265625zm0 0"/><path d="m207.726562 201.859375c-6.789062.011719-13.300781-2.679687-18.101562-7.480469-9.984375-10.003906-9.984375-26.199218 0-36.203125l24.140625-24.136719c1.601563-1.601562 3.769531-2.5 6.035156-2.5 2.261719 0 4.433594.898438 6.03125 2.5l24.136719 24.136719c3.328125 3.332031 3.328125 8.734375 0 12.066407l-24.136719 24.136718c-4.800781 4.800782-11.316406 7.492188-18.105469 7.480469zm-6.035156-19.550781c3.335938 3.332031 8.742188 3.332031 12.074219 0l18.101563-18.101563-12.066407-12.070312-18.109375 18.101562c-3.324218 3.339844-3.324218 8.734375 0 12.070313zm0 0"/><path d="m249.96875 178.773438c-2.265625.003906-4.4375-.898438-6.035156-2.5l-36.207032-36.203126c-2.171874-2.152343-3.027343-5.300781-2.242187-8.257812.789063-2.953125 3.09375-5.261719 6.050781-6.050781 2.953125-.785157 6.101563.066406 8.257813 2.238281l36.207031 36.203125c2.441406 2.441406 3.167969 6.113281 1.847656 9.300781-1.320312 3.1875-4.429687 5.265625-7.878906 5.265625zm0 0"/><path d="m231.867188 160.671875c-3.453126 0-6.5625-2.082031-7.882813-5.269531s-.589844-6.859375 1.847656-9.296875l54.308594-54.3125c3.34375-3.261719 8.6875-3.226563 11.992187.074219 3.300782 3.304687 3.335938 8.648437.074219 11.992187l-54.308593 54.3125c-1.597657 1.601563-3.769532 2.5-6.03125 2.5zm0 0"/><path d="m298.234375 111.351562c-10.355469.003907-19.695313-6.230468-23.65625-15.796874-3.964844-9.566407-1.769531-20.578126 5.554687-27.894532l15.09375-15.089844c5-4.992187 13.097657-4.992187 18.097657 0l18.101562 18.105469c4.992188 5 4.992188 13.097657 0 18.101563l-15.085937 15.082031c-4.796875 4.804687-11.3125 7.5-18.105469 7.492187zm6.039063-43.691406-12.074219 12.070313c-3.332031 3.335937-3.328125 8.738281.003906 12.070312 3.335937 3.332031 8.738281 3.328125 12.070313-.003906l12.066406-12.066406zm0 0"/><path d="m298.238281 178.773438c-2.261719.003906-4.433593-.898438-6.03125-2.5l-84.480469-84.476563c-2.21875-2.140625-3.109374-5.3125-2.328124-8.296875s3.113281-5.3125 6.097656-6.09375c2.980468-.78125 6.15625.109375 8.296875 2.324219l84.480469 84.476562c2.4375 2.441407 3.167968 6.109375 1.847656 9.296875-1.320313 3.191406-4.429688 5.269532-7.882813 5.269532zm0 0"/><path d="m201.691406 99.296875c-6.792968.015625-13.3125-2.683594-18.101562-7.5-3.246094-3.347656-3.203125-8.679687.09375-11.976563 3.296875-3.296874 8.628906-3.335937 11.976562-.089843 3.371094 3.21875 8.679688 3.222656 12.054688.003906 3.332031-3.335937 3.335937-8.738281.011718-12.074219-2.210937-2.144531-3.09375-5.316406-2.3125-8.292968.78125-2.980469 3.105469-5.304688 6.085938-6.085938 2.976562-.785156 6.148438.097656 8.292969 2.308594 7.320312 7.324218 9.511719 18.335937 5.550781 27.902344-3.960938 9.566406-13.296875 15.804687-23.652344 15.804687zm0 0"/><path d="m298.238281 202.90625c-2.261719.003906-4.433593-.894531-6.03125-2.496094-9.984375-10.003906-9.984375-26.203125 0-36.207031 10.128907-9.667969 26.070313-9.667969 36.199219 0 2.210938 2.144531 3.09375 5.316406 2.3125 8.292969-.78125 2.980468-3.109375 5.304687-6.085938 6.085937-2.980468.78125-6.148437-.101562-8.292968-2.3125-3.375-3.21875-8.683594-3.222656-12.058594-.003906-3.332031 3.335937-3.335938 8.738281-.007812 12.074219 2.4375 2.441406 3.167968 6.113281 1.847656 9.300781-1.320313 3.1875-4.429688 5.265625-7.882813 5.265625zm0 0"/></g></svg>